<svg xmlns="http://www.w3.org/2000/svg" viewBox="0 0 75 50"><defs><style>.cls-1{fill:#fff;}</style></defs><title>dark-bw</title><g id="Layer_2" data-name="Layer 2"><g id="logo"><path class="cls-1" d="M29.47,41a16,16,0,1,1,5.84-26.35L41,9a24,24,0,1,0-8.85,39.56Z"/><path class="cls-1" d="M31,28.48A102,102,0,0,0,39.6,48c1.37,2.38,5.66,2.83,6.9,0,6.44-14.7,13.42-30.61,26.77-40.38,4.11-3,.13-9.95-4-6.9C54.57,11.49,46.71,27.77,39.6,44h6.9a91.38,91.38,0,0,1-7.84-17.66c-1.57-4.88-9.3-2.79-7.71,2.13Z"/></g></g></svg>