<svg xmlns="http://www.w3.org/2000/svg" viewBox="0 0 148.82 113.39"><defs><style>.cls-1{fill:none;}.cls-2{fill:#fff;}</style></defs><title>ww-x-rect</title><g id="Layer_2" data-name="Layer 2"><g id="Layer_1-2" data-name="Layer 1"><rect class="cls-1" width="148.82" height="113.39"/><path class="cls-2" d="M63,79.43a22.69,22.69,0,1,1,8.28-37.35l8-8A34,34,0,1,0,66.79,90.13Z"/><path class="cls-2" d="M65.13,61.62A143.87,143.87,0,0,0,77.38,89.35c1.94,3.38,8,4,9.79,0,9.13-20.84,19-43.39,37.94-57.23,5.83-4.27.18-14.1-5.72-9.79-20.79,15.21-31.93,38.3-42,61.3h9.79a130.16,130.16,0,0,1-11.12-25c-2.23-6.91-13.17-4-10.92,3Z"/></g></g></svg>